<svg width="158" height="171" viewBox="0 0 158 171" fill="none" xmlns="http://www.w3.org/2000/svg">
<path d="M139.845 81.6809L141.434 55.807L117.577 54.0839L115.988 79.9578L139.845 81.6809Z" fill="#2C8EC7"/>
<path d="M155.238 67.942L126.268 65.8497L128.198 34.4314L157.167 36.5237L155.238 67.942ZM127.612 64.5746L154.063 66.485L155.824 37.7988L129.373 35.8884L127.612 64.5746Z" fill="#006FAF"/>
<path d="M5.02295 158.405L28.3997 152.957L23.3768 127.605L5.02695e-07 133.052L5.02295 158.405Z" fill="#04A1CC"/>
<path d="M21.4308 170.685L15.3315 139.899L43.7175 133.285L49.8168 164.07L21.4308 170.685ZM16.8308 140.95L22.3998 169.059L48.3175 163.019L42.7485 134.911L16.8308 140.95Z" fill="#006FAF"/>
<path d="M29.5863 36.6528L47.0369 18.9257L30.6914 3.31544e-06L13.2407 17.7271L29.5863 36.6528Z" fill="#04A1CC"/>
<path d="M11.986 39.3046L33.1761 17.7789L53.0242 40.76L31.8342 62.2857L11.986 39.3046ZM33.1178 19.714L13.7703 39.3679L31.8925 60.3506L51.24 40.6967L33.1178 19.714Z" fill="#006FAF"/>
</svg>
